<svg xmlns="http://www.w3.org/2000/svg" width="750" viewBox="0 0 750 187.5" height="187.5" version="1.0"><defs><clipPath id="a"><path d="M 469.359375 6 L 573 6 L 573 88.972656 L 469.359375 88.972656 Z M 469.359375 6"/></clipPath><clipPath id="b"><path d="M 469.359375 6 L 475 6 L 475 12 L 469.359375 12 Z M 469.359375 6"/></clipPath><clipPath id="c"><path d="M 568.3125 84.671875 L 573.332031 84.671875 L 573.332031 88.964844 L 568.3125 88.964844 Z M 568.3125 84.671875"/></clipPath></defs><path d="M 491.863281 25.953125 C 491.539062 25.917969 491.222656 25.875 490.910156 25.835938 C 489.859375 25.691406 488.851562 25.503906 487.878906 25.28125 C 481.746094 23.878906 476.945312 20.976562 471.304688 17.417969 C 470.871094 17.152344 471.0625 16.550781 471.566406 16.597656 C 473.105469 16.753906 474.195312 16.085938 474.964844 15.039062 C 475.234375 14.671875 475.46875 14.257812 475.664062 13.816406 C 475.730469 13.664062 475.796875 13.507812 475.855469 13.347656 C 475.859375 13.339844 475.859375 13.335938 475.863281 13.332031 C 475.871094 13.3125 475.875 13.296875 475.882812 13.277344 C 475.910156 13.203125 475.9375 13.128906 475.960938 13.054688 L 492.429688 26.011719 C 492.238281 25.992188 492.050781 25.972656 491.863281 25.953125"/><path d="M 493.089844 24.398438 C 492.980469 24.09375 492.871094 23.792969 492.757812 23.5 C 492.375 22.507812 491.964844 21.570312 491.527344 20.671875 C 488.757812 15.015625 484.835938 11 480.085938 6.316406 C 479.726562 5.953125 479.183594 6.277344 479.347656 6.757812 C 479.851562 8.222656 479.453125 9.4375 478.613281 10.429688 C 478.316406 10.777344 477.96875 11.097656 477.582031 11.390625 C 477.449219 11.492188 477.3125 11.589844 477.167969 11.6875 C 477.164062 11.6875 477.160156 11.691406 477.15625 11.695312 C 477.140625 11.707031 477.125 11.714844 477.109375 11.726562 C 477.042969 11.769531 476.976562 11.8125 476.910156 11.855469 L 493.277344 24.9375 C 493.214844 24.757812 493.152344 24.578125 493.089844 24.398438"/><g clip-path="url(#a)"><path fill="#ED9647" d="M 571.964844 86.511719 L 571.96875 86.511719 C 571.984375 86.527344 572.003906 86.542969 572.019531 86.5625 L 570.738281 88.179688 C 570.714844 88.167969 570.695312 88.15625 570.675781 88.140625 C 570.589844 88.074219 570.464844 87.972656 570.300781 87.847656 C 570.105469 87.691406 569.855469 87.496094 569.554688 87.257812 C 569.5 87.214844 569.441406 87.167969 569.382812 87.121094 C 569.324219 87.074219 569.261719 87.027344 569.199219 86.976562 C 569.117188 86.914062 569.035156 86.847656 568.949219 86.78125 C 568.875 86.722656 568.804688 86.664062 568.726562 86.605469 C 568.652344 86.546875 568.574219 86.484375 568.492188 86.421875 C 558.429688 78.480469 518.054688 46.636719 492.238281 26.269531 L 491.851562 25.964844 C 485.3125 20.808594 479.730469 16.40625 475.851562 13.347656 C 472.183594 10.453125 470.035156 8.757812 470.035156 8.757812 C 469.511719 8.34375 469.359375 7.632812 469.699219 7.167969 C 470.039062 6.707031 470.738281 6.667969 471.265625 7.082031 L 476.480469 11.195312 L 477.148438 11.722656 L 492.941406 24.179688 L 492.96875 24.199219 L 493.75 24.816406 L 569.679688 84.707031 L 571.964844 86.511719"/></g><g clip-path="url(#b)"><path d="M 474.242188 9.429688 L 471.265625 7.082031 C 470.738281 6.667969 470.039062 6.707031 469.699219 7.167969 C 469.359375 7.632812 469.507812 8.34375 470.035156 8.757812 C 470.035156 8.757812 471.078125 9.582031 472.953125 11.058594 L 474.242188 9.429688"/></g><g clip-path="url(#c)"><path fill="#344851" d="M 571.964844 86.511719 L 571.96875 86.511719 C 571.984375 86.527344 572.003906 86.542969 572.019531 86.5625 C 572.035156 86.578125 572.046875 86.597656 572.058594 86.617188 L 573.308594 88.679688 C 573.398438 88.828125 573.253906 89.011719 573.089844 88.957031 L 570.800781 88.207031 C 570.777344 88.199219 570.757812 88.191406 570.738281 88.179688 C 570.714844 88.167969 570.695312 88.15625 570.675781 88.140625 C 570.589844 88.074219 570.464844 87.972656 570.300781 87.847656 C 570.105469 87.691406 569.855469 87.496094 569.554688 87.257812 C 569.5 87.214844 569.441406 87.167969 569.382812 87.121094 C 569.324219 87.074219 569.261719 87.027344 569.199219 86.976562 C 569.117188 86.914062 569.035156 86.847656 568.949219 86.78125 C 568.878906 86.722656 568.804688 86.664062 568.726562 86.605469 C 568.652344 86.546875 568.574219 86.484375 568.492188 86.421875 L 568.390625 86.339844 L 569.679688 84.707031 L 571.964844 86.511719"/></g><g><g><g><path d="M 48.292969 -69.691406 C 35.78125 -69.691406 23.386719 -67.703125 13.332031 -65.597656 L 9.238281 -49.230469 C 20.113281 -52.152344 32.976562 -54.140625 44.902344 -54.140625 C 63.496094 -54.140625 68.289062 -49.460938 68.289062 -40.808594 L 68.289062 -39.640625 C 58.933594 -40.457031 50.515625 -40.808594 42.445312 -40.808594 C 14.851562 -40.808594 4.558594 -32.625 4.558594 -19.996094 L 4.558594 -19.878906 C 4.558594 -4.910156 16.839844 1.871094 43.5 1.871094 C 55.542969 1.871094 71.914062 0.585938 87.113281 -1.519531 L 87.113281 -43.964844 C 87.113281 -61.625 76.707031 -69.691406 48.292969 -69.691406 Z M 23.621094 -20.695312 C 23.621094 -27.011719 30.871094 -28.882812 48.527344 -28.882812 C 55.308594 -28.882812 62.910156 -28.648438 68.523438 -27.828125 L 68.523438 -13.332031 C 63.84375 -12.746094 57.179688 -12.394531 48.527344 -12.394531 C 30.050781 -12.394531 23.621094 -15.085938 23.621094 -20.582031 Z M 23.621094 -20.695312" transform="translate(15.038 150.493)"/></g></g></g><g><g><g><path d="M 49.34375 1.519531 C 60.21875 1.519531 74.835938 -1.050781 82.085938 -4.328125 L 74.835938 -19.292969 C 68.523438 -17.070312 59.636719 -15.085938 50.632812 -15.085938 C 33.324219 -15.085938 23.738281 -21.515625 23.738281 -34.261719 L 23.738281 -34.496094 C 23.738281 -46.773438 33.324219 -53.203125 50.632812 -53.203125 C 60.101562 -53.203125 68.640625 -51.214844 74.601562 -48.996094 L 81.734375 -63.960938 C 73.785156 -66.886719 61.507812 -69.691406 49.460938 -69.691406 C 19.644531 -69.691406 4.675781 -55.191406 4.675781 -34.378906 L 4.675781 -34.261719 C 4.675781 -13.214844 19.644531 1.519531 49.34375 1.519531 Z M 49.34375 1.519531" transform="translate(108.692 150.493)"/></g></g></g><g><g><g><path d="M 49.34375 1.519531 C 60.21875 1.519531 74.835938 -1.050781 82.085938 -4.328125 L 74.835938 -19.292969 C 68.523438 -17.070312 59.636719 -15.085938 50.632812 -15.085938 C 33.324219 -15.085938 23.738281 -21.515625 23.738281 -34.261719 L 23.738281 -34.496094 C 23.738281 -46.773438 33.324219 -53.203125 50.632812 -53.203125 C 60.101562 -53.203125 68.640625 -51.214844 74.601562 -48.996094 L 81.734375 -63.960938 C 73.785156 -66.886719 61.507812 -69.691406 49.460938 -69.691406 C 19.644531 -69.691406 4.675781 -55.191406 4.675781 -34.378906 L 4.675781 -34.261719 C 4.675781 -13.214844 19.644531 1.519531 49.34375 1.519531 Z M 49.34375 1.519531" transform="translate(193.11 150.493)"/></g></g></g><g><g><g><path d="M 47.941406 1.050781 C 60.804688 1.050781 76.589844 -1.050781 89.21875 -3.390625 L 89.21875 -67.121094 L 70.628906 -67.121094 L 70.628906 -16.839844 C 64.195312 -15.785156 54.375 -14.734375 46.539062 -14.734375 C 32.039062 -14.734375 24.90625 -18.476562 24.90625 -30.519531 L 24.90625 -67.121094 L 6.3125 -67.121094 L 6.3125 -28.179688 C 6.3125 -6.3125 18.710938 1.050781 47.941406 1.050781 Z M 47.941406 1.050781" transform="translate(277.528 150.493)"/></g></g></g><g fill="#875435"><g><g><path d="M 24.90625 0 L 24.90625 -49.230469 C 29.46875 -50.046875 37.300781 -50.398438 43.148438 -50.398438 L 64.429688 -50.398438 L 64.429688 -67.703125 L 50.984375 -67.703125 C 41.863281 -67.703125 21.046875 -66.769531 6.3125 -64.78125 L 6.3125 0 Z M 24.90625 0" transform="translate(373.05 150.493)"/></g></g></g><g fill="#875435"><g><g><path d="M 48.292969 -69.691406 C 35.78125 -69.691406 23.386719 -67.703125 13.332031 -65.597656 L 9.238281 -49.230469 C 20.113281 -52.152344 32.976562 -54.140625 44.902344 -54.140625 C 63.496094 -54.140625 68.289062 -49.460938 68.289062 -40.808594 L 68.289062 -39.640625 C 58.933594 -40.457031 50.515625 -40.808594 42.445312 -40.808594 C 14.851562 -40.808594 4.558594 -32.625 4.558594 -19.996094 L 4.558594 -19.878906 C 4.558594 -4.910156 16.839844 1.871094 43.5 1.871094 C 55.542969 1.871094 71.914062 0.585938 87.113281 -1.519531 L 87.113281 -43.964844 C 87.113281 -61.625 76.707031 -69.691406 48.292969 -69.691406 Z M 23.621094 -20.695312 C 23.621094 -27.011719 30.871094 -28.882812 48.527344 -28.882812 C 55.308594 -28.882812 62.910156 -28.648438 68.523438 -27.828125 L 68.523438 -13.332031 C 63.84375 -12.746094 57.179688 -12.394531 48.527344 -12.394531 C 30.050781 -12.394531 23.621094 -15.085938 23.621094 -20.582031 Z M 23.621094 -20.695312" transform="translate(441.801 150.493)"/></g></g></g><g fill="#875435"><g><g><path d="M 74.484375 0 L 74.484375 -17.1875 L 48.996094 -17.1875 C 41.394531 -17.1875 37.417969 -19.292969 37.417969 -27.128906 L 37.417969 -50.046875 L 74.371094 -50.046875 L 74.371094 -67.121094 L 37.417969 -67.121094 L 37.417969 -87.699219 L 18.828125 -87.699219 L 18.828125 -67.121094 L 2.691406 -67.121094 L 2.691406 -50.046875 L 18.828125 -50.046875 L 18.828125 -21.398438 C 18.828125 -4.910156 26.425781 0 40.925781 0 Z M 74.484375 0" transform="translate(535.456 150.493)"/></g></g></g><g fill="#875435"><g><g><path d="M 90.738281 -31.570312 C 90.738281 -57.765625 72.148438 -69.691406 47.941406 -69.691406 C 21.28125 -69.691406 4.675781 -54.375 4.675781 -34.027344 L 4.675781 -33.792969 C 4.675781 -10.992188 23.269531 1.753906 49.578125 1.753906 C 66.066406 1.753906 80.332031 -3.039062 87.816406 -7.132812 L 79.632812 -21.515625 C 72.265625 -17.890625 61.859375 -14.5 50.046875 -14.5 C 34.964844 -14.5 25.960938 -20.347656 23.972656 -29.585938 L 90.738281 -29.585938 Z M 47.824219 -54.722656 C 60.335938 -54.722656 69.574219 -49.230469 71.679688 -41.042969 L 24.4375 -41.042969 C 27.363281 -50.398438 36.25 -54.722656 47.824219 -54.722656 Z M 47.824219 -54.722656" transform="translate(614.847 150.493)"/></g></g></g></svg>